<svg xmlns="http://www.w3.org/2000/svg">
  <defs>
    <symbol id="logo" viewBox="0 0 100 100">
      <title>Logo</title>
      <path d=""/>
    </symbol>
    <symbol id="facebook" viewBox="0 0 34 34">
      <title>Facebook</title>
      <path fill="#FFFFFF" d="M12.9,14.1h1.8v-1.7c0-0.8,0-1.9,0.6-2.6C15.8,9,16.6,8.5,18,8.5c2.2,0,3.2,0.3,3.2,0.3l-0.4,2.6
        c0,0-0.7-0.2-1.4-0.2c-0.7,0-1.3,0.2-1.3,0.9v2h2.8l-0.2,2.5H18v8.8h-3.3v-8.8h-1.8V14.1z"/>
    </symbol>
    <symbol id="twitter" viewBox="0 0 34 34">
      <title>Twitter</title>
      <path fill="#FFFFFF" d="M25.5,12.6c-0.6,0.3-1.3,0.5-2,0.6c0.7-0.4,1.3-1.1,1.5-1.9c-0.7,0.4-1.4,0.7-2.2,0.8
      c-0.6-0.7-1.5-1.1-2.6-1.1c-1.9,0-3.5,1.6-3.5,3.5c0,0.3,0,0.5,0.1,0.8c-2.9-0.1-5.5-1.5-7.2-3.7c-0.3,0.5-0.5,1.1-0.5,1.8
      c0,1.2,0.6,2.3,1.6,2.9c-0.6,0-1.1-0.2-1.6-0.4v0c0,1.7,1.2,3.1,2.8,3.4c-0.3,0.1-0.6,0.1-0.9,0.1c-0.2,0-0.4,0-0.7-0.1
      c0.4,1.4,1.7,2.4,3.3,2.4c-1.2,0.9-2.7,1.5-4.3,1.5c-0.3,0-0.6,0-0.8,0c1.5,1,3.4,1.6,5.4,1.6c6.4,0,9.9-5.3,9.9-9.9
      c0-0.2,0-0.3,0-0.5C24.5,13.9,25.1,13.3,25.5,12.6"/>
    </symbol>
  </defs>
</svg>




