<svg xmlns="http://www.w3.org/2000/svg">
  <defs>
    <symbol id="logo" viewBox="0 0 100 100">
      <title>Logo</title>
      <path d=""/>
    </symbol>
    <symbol id="facebook" viewBox="0 0 34 34">
      <title>Facebook</title>
      <path fill="#FFFFFF" d="M12.9,14.1h1.8v-1.7c0-0.8,0-1.9,0.6-2.6C15.8,9,16.6,8.5,18,8.5c2.2,0,3.2,0.3,3.2,0.3l-0.4,2.6
        c0,0-0.7-0.2-1.4-0.2c-0.7,0-1.3,0.2-1.3,0.9v2h2.8l-0.2,2.5H18v8.8h-3.3v-8.8h-1.8V14.1z"/>
    </symbol>
    <symbol id="twitter" viewBox="0 0 34 34">
      <title>Twitter</title>
      <path fill="#FFFFFF" d="M25.5,12.6c-0.6,0.3-1.3,0.5-2,0.6c0.7-0.4,1.3-1.1,1.5-1.9c-0.7,0.4-1.4,0.7-2.2,0.8
      c-0.6-0.7-1.5-1.1-2.6-1.1c-1.9,0-3.5,1.6-3.5,3.5c0,0.3,0,0.5,0.1,0.8c-2.9-0.1-5.5-1.5-7.2-3.7c-0.3,0.5-0.5,1.1-0.5,1.8
      c0,1.2,0.6,2.3,1.6,2.9c-0.6,0-1.1-0.2-1.6-0.4v0c0,1.7,1.2,3.1,2.8,3.4c-0.3,0.1-0.6,0.1-0.9,0.1c-0.2,0-0.4,0-0.7-0.1
      c0.4,1.4,1.7,2.4,3.3,2.4c-1.2,0.9-2.7,1.5-4.3,1.5c-0.3,0-0.6,0-0.8,0c1.5,1,3.4,1.6,5.4,1.6c6.4,0,9.9-5.3,9.9-9.9
      c0-0.2,0-0.3,0-0.5C24.5,13.9,25.1,13.3,25.5,12.6"/>
    </symbol>
    <symbol id="linkedin" viewBox="0 0 34 34">
      <title>Linkedin</title>
      <path fill="#FFFFFF" d="M12.233,24.119H8.918V13.508h3.315V24.119z M10.491,12.18h-0.024c-1.2,0-1.978-0.811-1.978-1.838
      	c0-1.049,0.801-1.843,2.025-1.843c1.223,0,1.975,0.792,1.999,1.84C12.513,11.366,11.737,12.18,10.491,12.18z M25.497,24.119h-3.759
      	v-5.491c0-1.438-0.587-2.418-1.881-2.418c-0.989,0-1.539,0.661-1.795,1.3c-0.096,0.228-0.081,0.547-0.081,0.867v5.742h-3.724
      	c0,0,0.048-9.728,0-10.611h3.724v1.665c0.22-0.729,1.41-1.768,3.31-1.768c2.355,0,4.206,1.526,4.206,4.814V24.119z"/>
    </symbol>
    <symbol id="googleplus" viewBox="0 0 34 34">
      <title>Google+</title>
      <path fill="#FFFFFF" d="M14.2,24.63c-2.022,0-3.482-1.279-3.482-2.817c0-1.507,1.812-2.762,3.834-2.739
      	c0.472,0.005,0.912,0.081,1.31,0.21c1.097,0.764,1.884,1.194,2.107,2.065c0.042,0.177,0.065,0.357,0.065,0.543
      	C18.033,23.429,17.042,24.63,14.2,24.63 M14.731,15.613c-1.357-0.041-2.647-1.519-2.881-3.301c-0.234-1.782,0.676-3.146,2.033-3.106
      	c1.356,0.041,2.647,1.471,2.881,3.253C16.998,14.241,16.088,15.654,14.731,15.613 M17.544,18.253
      	c-0.476-0.338-1.386-1.157-1.386-1.639c0-0.566,0.161-0.843,1.011-1.508c0.871-0.681,1.488-1.638,1.488-2.751
      	c0-1.325-0.59-2.616-1.698-3.043h1.67l1.179-0.852H14.54c-2.361,0-4.583,1.789-4.583,3.861c0,2.118,1.61,3.828,4.012,3.828
      	c0.168,0,0.329-0.004,0.488-0.015c-0.156,0.298-0.268,0.635-0.268,0.983c0,0.589,0.317,1.067,0.717,1.457
      	c-0.303,0-0.595,0.009-0.912,0.009c-2.925,0-5.177,1.862-5.177,3.795c0,1.902,2.468,3.093,5.393,3.093
      	c3.334,0,5.177-1.893,5.177-3.795C19.387,20.15,18.936,19.236,17.544,18.253 M25.208,15.769h-2.051v-2.051h-1.65v2.051h-2.05v1.65
      	h2.05v2.051h1.65v-2.051h2.051V15.769z"/>
    </symbol>
    <symbol id="pinterest" viewBox="0 0 34 34">
      <path fill="#FFFFFF" d="M17.012,8.461c-4.696,0-8.504,3.808-8.504,8.505c0,3.482,2.094,6.475,5.091,7.79
      	c-0.024-0.593-0.004-1.307,0.147-1.953c0.164-0.689,1.094-4.634,1.094-4.634s-0.271-0.544-0.271-1.346
      	c0-1.261,0.731-2.202,1.64-2.202c0.774,0,1.147,0.581,1.147,1.277c0,0.777-0.496,1.94-0.751,3.018
      	c-0.213,0.902,0.452,1.638,1.342,1.638c1.611,0,2.696-2.068,2.696-4.521c0-1.863-1.255-3.259-3.538-3.259
      	c-2.58,0-4.186,1.924-4.186,4.072c0,0.741,0.218,1.265,0.56,1.669c0.158,0.187,0.179,0.261,0.123,0.475
      	c-0.04,0.155-0.134,0.533-0.173,0.682c-0.057,0.216-0.231,0.293-0.425,0.213c-1.188-0.485-1.742-1.786-1.742-3.249
      	c0-2.416,2.037-5.314,6.077-5.314c3.247,0,5.384,2.351,5.384,4.872c0,3.337-1.854,5.829-4.589,5.829
      	c-0.917,0-1.781-0.496-2.077-1.06c0,0-0.494,1.959-0.599,2.338c-0.18,0.655-0.533,1.31-0.856,1.821
      	c0.765,0.226,1.573,0.35,2.41,0.35c4.696,0,8.504-3.809,8.504-8.506C25.516,12.269,21.708,8.461,17.012,8.461"/>
    </symbol>



  </defs>
</svg>
